<?xml version="1.0" encoding="UTF-8" standalone="no"?>
<!DOCTYPE svg PUBLIC "-//W3C//DTD SVG 1.1//EN"
 "http://www.w3.org/Graphics/SVG/1.1/DTD/svg11.dtd">
<!-- Generated by graphviz version 2.30.1 (20130711.0844)
 -->
<!-- Title: controllers_diagram Pages: 1 -->
<svg width="911pt" height="897pt"
 viewBox="0.00 0.00 911.43 897.00" xmlns="http://www.w3.org/2000/svg" xmlns:xlink="http://www.w3.org/1999/xlink">
<g id="graph0" class="graph" transform="scale(1 1) rotate(0) translate(4 893)">
<title>controllers_diagram</title>
<polygon fill="white" stroke="white" points="-4,5 -4,-893 908.428,-893 908.428,5 -4,5"/>
<!-- _diagram_info -->
<g id="node1" class="node"><title>_diagram_info</title>
<text text-anchor="start" x="50" y="-783" font-family="Times,serif" font-size="13.00">Controllers diagram</text>
<text text-anchor="start" x="50" y="-767.4" font-family="Times,serif" font-size="13.00">Date: Aug 16 2013 &#45; 09:42</text>
<text text-anchor="start" x="50" y="-751.8" font-family="Times,serif" font-size="13.00">Migration version: 20130809150653</text>
<text text-anchor="start" x="50" y="-736.2" font-family="Times,serif" font-size="13.00">Generated by RailRoady 1.1.0</text>
<text text-anchor="start" x="50" y="-720.6" font-family="Times,serif" font-size="13.00">http://railroady.prestonlee.com</text>
</g>
<!-- ApplicationController -->
<g id="node2" class="node"><title>ApplicationController</title>
<path fill="none" stroke="black" d="M292.95,-201.649C292.95,-201.649 471.584,-201.649 471.584,-201.649 477.584,-201.649 483.584,-207.649 483.584,-213.649 483.584,-213.649 483.584,-456.049 483.584,-456.049 483.584,-462.049 477.584,-468.049 471.584,-468.049 471.584,-468.049 292.95,-468.049 292.95,-468.049 286.95,-468.049 280.95,-462.049 280.95,-456.049 280.95,-456.049 280.95,-213.649 280.95,-213.649 280.95,-207.649 286.95,-201.649 292.95,-201.649"/>
<text text-anchor="middle" x="382.267" y="-450.049" font-family="Times,serif" font-size="14.00">ApplicationController</text>
<polyline fill="none" stroke="black" points="280.95,-443.249 483.584,-443.249 "/>
<text text-anchor="start" x="288.95" y="-425.249" font-family="Times,serif" font-size="14.00">_one_time_conditions_valid_70?</text>
<text text-anchor="start" x="288.95" y="-408.449" font-family="Times,serif" font-size="14.00">_one_time_conditions_valid_72?</text>
<text text-anchor="start" x="288.95" y="-391.649" font-family="Times,serif" font-size="14.00">after_sign_in_path_for</text>
<text text-anchor="start" x="288.95" y="-374.849" font-family="Times,serif" font-size="14.00">clear_cache</text>
<text text-anchor="start" x="288.95" y="-358.049" font-family="Times,serif" font-size="14.00">default_url_options</text>
<text text-anchor="start" x="288.95" y="-341.249" font-family="Times,serif" font-size="14.00">has_js</text>
<text text-anchor="start" x="288.95" y="-324.449" font-family="Times,serif" font-size="14.00">home</text>
<text text-anchor="start" x="288.95" y="-307.649" font-family="Times,serif" font-size="14.00">set_locale</text>
<text text-anchor="start" x="288.95" y="-290.849" font-family="Times,serif" font-size="14.00">start_questionnaire</text>
<text text-anchor="start" x="288.95" y="-274.049" font-family="Times,serif" font-size="14.00">status</text>
<polyline fill="none" stroke="black" points="280.95,-267.249 483.584,-267.249 "/>
<polyline fill="none" stroke="black" points="280.95,-243.249 483.584,-243.249 "/>
<text text-anchor="start" x="288.95" y="-225.249" font-family="Times,serif" font-size="14.00">_layout</text>
<text text-anchor="start" x="288.95" y="-208.449" font-family="Times,serif" font-size="14.00">record_not_found</text>
</g>
<!-- CertificatesController -->
<g id="node3" class="node"><title>CertificatesController</title>
<path fill="none" stroke="black" d="M548.915,-42.5C548.915,-42.5 662.218,-42.5 662.218,-42.5 668.218,-42.5 674.218,-48.5 674.218,-54.5 674.218,-54.5 674.218,-229.7 674.218,-229.7 674.218,-235.7 668.218,-241.7 662.218,-241.7 662.218,-241.7 548.915,-241.7 548.915,-241.7 542.915,-241.7 536.915,-235.7 536.915,-229.7 536.915,-229.7 536.915,-54.5 536.915,-54.5 536.915,-48.5 542.915,-42.5 548.915,-42.5"/>
<text text-anchor="middle" x="605.566" y="-223.7" font-family="Times,serif" font-size="14.00">CertificatesController</text>
<polyline fill="none" stroke="black" points="536.915,-216.9 674.218,-216.9 "/>
<text text-anchor="start" x="544.915" y="-198.9" font-family="Times,serif" font-size="14.00">badge</text>
<text text-anchor="start" x="544.915" y="-182.1" font-family="Times,serif" font-size="14.00">embed</text>
<text text-anchor="start" x="544.915" y="-165.3" font-family="Times,serif" font-size="14.00">get_badge</text>
<text text-anchor="start" x="544.915" y="-148.5" font-family="Times,serif" font-size="14.00">improvements</text>
<text text-anchor="start" x="544.915" y="-131.7" font-family="Times,serif" font-size="14.00">latest</text>
<text text-anchor="start" x="544.915" y="-114.9" font-family="Times,serif" font-size="14.00">legacy_show</text>
<text text-anchor="start" x="544.915" y="-98.1" font-family="Times,serif" font-size="14.00">show</text>
<polyline fill="none" stroke="black" points="536.915,-91.3 674.218,-91.3 "/>
<polyline fill="none" stroke="black" points="536.915,-67.3 674.218,-67.3 "/>
<text text-anchor="start" x="544.915" y="-49.3" font-family="Times,serif" font-size="14.00">_layout</text>
</g>
<!-- ApplicationController&#45;&gt;CertificatesController -->
<g id="edge1" class="edge"><title>ApplicationController&#45;&gt;CertificatesController</title>
<path fill="none" stroke="black" d="M483.789,-247.216C501.762,-231.702 520.088,-215.884 536.883,-201.387"/>
</g>
<!-- DatasetsController -->
<g id="node4" class="node"><title>DatasetsController</title>
<path fill="none" stroke="black" d="M65.8943,-49.0826C65.8943,-49.0826 251.529,-49.0826 251.529,-49.0826 257.529,-49.0826 263.529,-55.0826 263.529,-61.0826 263.529,-61.0826 263.529,-219.483 263.529,-219.483 263.529,-225.483 257.529,-231.483 251.529,-231.483 251.529,-231.483 65.8943,-231.483 65.8943,-231.483 59.8943,-231.483 53.8943,-225.483 53.8943,-219.483 53.8943,-219.483 53.8943,-61.0826 53.8943,-61.0826 53.8943,-55.0826 59.8943,-49.0826 65.8943,-49.0826"/>
<text text-anchor="middle" x="158.712" y="-213.483" font-family="Times,serif" font-size="14.00">DatasetsController</text>
<polyline fill="none" stroke="black" points="53.8943,-206.683 263.529,-206.683 "/>
<text text-anchor="start" x="61.8943" y="-188.683" font-family="Times,serif" font-size="14.00">_callback_before_129</text>
<text text-anchor="start" x="61.8943" y="-171.883" font-family="Times,serif" font-size="14.00">_one_time_conditions_valid_130?</text>
<text text-anchor="start" x="61.8943" y="-155.083" font-family="Times,serif" font-size="14.00">_one_time_conditions_valid_132?</text>
<text text-anchor="start" x="61.8943" y="-138.283" font-family="Times,serif" font-size="14.00">dashboard</text>
<text text-anchor="start" x="61.8943" y="-121.483" font-family="Times,serif" font-size="14.00">index</text>
<text text-anchor="start" x="61.8943" y="-104.683" font-family="Times,serif" font-size="14.00">show</text>
<polyline fill="none" stroke="black" points="53.8943,-97.8826 263.529,-97.8826 "/>
<polyline fill="none" stroke="black" points="53.8943,-73.8826 263.529,-73.8826 "/>
<text text-anchor="start" x="61.8943" y="-55.8826" font-family="Times,serif" font-size="14.00">_layout</text>
</g>
<!-- ApplicationController&#45;&gt;DatasetsController -->
<g id="edge2" class="edge"><title>ApplicationController&#45;&gt;DatasetsController</title>
<path fill="none" stroke="black" d="M280.629,-246.39C274.977,-241.471 269.29,-236.522 263.627,-231.593"/>
</g>
<!-- ResponseSetsController -->
<g id="node6" class="node"><title>ResponseSetsController</title>
<path fill="none" stroke="black" d="M12,-467.736C12,-467.736 197.635,-467.736 197.635,-467.736 203.635,-467.736 209.635,-473.736 209.635,-479.736 209.635,-479.736 209.635,-604.536 209.635,-604.536 209.635,-610.536 203.635,-616.536 197.635,-616.536 197.635,-616.536 12,-616.536 12,-616.536 6,-616.536 0,-610.536 0,-604.536 0,-604.536 0,-479.736 0,-479.736 0,-473.736 6,-467.736 12,-467.736"/>
<text text-anchor="middle" x="104.817" y="-598.536" font-family="Times,serif" font-size="14.00">ResponseSetsController</text>
<polyline fill="none" stroke="black" points="0,-591.736 209.635,-591.736 "/>
<text text-anchor="start" x="8" y="-573.736" font-family="Times,serif" font-size="14.00">_callback_before_237</text>
<text text-anchor="start" x="8" y="-556.936" font-family="Times,serif" font-size="14.00">_one_time_conditions_valid_238?</text>
<text text-anchor="start" x="8" y="-540.136" font-family="Times,serif" font-size="14.00">destroy</text>
<text text-anchor="start" x="8" y="-523.336" font-family="Times,serif" font-size="14.00">publish</text>
<polyline fill="none" stroke="black" points="0,-516.536 209.635,-516.536 "/>
<polyline fill="none" stroke="black" points="0,-492.536 209.635,-492.536 "/>
<text text-anchor="start" x="8" y="-474.536" font-family="Times,serif" font-size="14.00">_layout</text>
</g>
<!-- ApplicationController&#45;&gt;ResponseSetsController -->
<g id="edge3" class="edge"><title>ApplicationController&#45;&gt;ResponseSetsController</title>
<path fill="none" stroke="black" d="M280.924,-410.564C256.001,-429.184 229.339,-449.104 204.495,-467.665"/>
</g>
<!-- SurveyorController -->
<g id="node8" class="node"><title>SurveyorController</title>
<path fill="none" stroke="black" d="M551.361,-380.567C551.361,-380.567 755.623,-380.567 755.623,-380.567 761.623,-380.567 767.623,-386.567 767.623,-392.567 767.623,-392.567 767.623,-702.167 767.623,-702.167 767.623,-708.167 761.623,-714.167 755.623,-714.167 755.623,-714.167 551.361,-714.167 551.361,-714.167 545.361,-714.167 539.361,-708.167 539.361,-702.167 539.361,-702.167 539.361,-392.567 539.361,-392.567 539.361,-386.567 545.361,-380.567 551.361,-380.567"/>
<text text-anchor="middle" x="653.492" y="-696.167" font-family="Times,serif" font-size="14.00">SurveyorController</text>
<polyline fill="none" stroke="black" points="539.361,-689.367 767.623,-689.367 "/>
<text text-anchor="start" x="547.361" y="-671.367" font-family="Times,serif" font-size="14.00">_one_time_conditions_valid_250?</text>
<text text-anchor="start" x="547.361" y="-654.567" font-family="Times,serif" font-size="14.00">_one_time_conditions_valid_254?</text>
<text text-anchor="start" x="547.361" y="-637.767" font-family="Times,serif" font-size="14.00">_one_time_conditions_valid_258?</text>
<text text-anchor="start" x="547.361" y="-620.967" font-family="Times,serif" font-size="14.00">_one_time_conditions_valid_262?</text>
<text text-anchor="start" x="547.361" y="-604.167" font-family="Times,serif" font-size="14.00">_one_time_conditions_valid_264?</text>
<text text-anchor="start" x="547.361" y="-587.367" font-family="Times,serif" font-size="14.00">_one_time_conditions_valid_266?</text>
<text text-anchor="start" x="547.361" y="-570.567" font-family="Times,serif" font-size="14.00">continue</text>
<text text-anchor="start" x="547.361" y="-553.767" font-family="Times,serif" font-size="14.00">create</text>
<text text-anchor="start" x="547.361" y="-536.967" font-family="Times,serif" font-size="14.00">edit</text>
<text text-anchor="start" x="547.361" y="-520.167" font-family="Times,serif" font-size="14.00">force_save_questionnaire</text>
<text text-anchor="start" x="547.361" y="-503.367" font-family="Times,serif" font-size="14.00">requirements</text>
<text text-anchor="start" x="547.361" y="-486.567" font-family="Times,serif" font-size="14.00">update</text>
<polyline fill="none" stroke="black" points="539.361,-479.767 767.623,-479.767 "/>
<polyline fill="none" stroke="black" points="539.361,-455.767 767.623,-455.767 "/>
<text text-anchor="start" x="547.361" y="-437.767" font-family="Times,serif" font-size="14.00">_layout</text>
<text text-anchor="start" x="547.361" y="-420.967" font-family="Times,serif" font-size="14.00">ensure_modifications_allowed</text>
<text text-anchor="start" x="547.361" y="-404.167" font-family="Times,serif" font-size="14.00">set_response_set_and_render_context</text>
<text text-anchor="start" x="547.361" y="-387.367" font-family="Times,serif" font-size="14.00">surveyor_finish</text>
</g>
<!-- ApplicationController&#45;&gt;SurveyorController -->
<g id="edge4" class="edge"><title>ApplicationController&#45;&gt;SurveyorController</title>
<path fill="none" stroke="black" d="M483.647,-414.285C501.702,-428.432 520.624,-443.258 539.015,-457.668"/>
</g>
<!-- ValidatorsController -->
<g id="node9" class="node"><title>ValidatorsController</title>
<path fill="none" stroke="black" d="M321.589,-574.12C321.589,-574.12 427.899,-574.12 427.899,-574.12 433.899,-574.12 439.899,-580.12 439.899,-586.12 439.899,-586.12 439.899,-677.32 439.899,-677.32 439.899,-683.32 433.899,-689.32 427.899,-689.32 427.899,-689.32 321.589,-689.32 321.589,-689.32 315.589,-689.32 309.589,-683.32 309.589,-677.32 309.589,-677.32 309.589,-586.12 309.589,-586.12 309.589,-580.12 315.589,-574.12 321.589,-574.12"/>
<text text-anchor="middle" x="374.744" y="-671.32" font-family="Times,serif" font-size="14.00">ValidatorsController</text>
<polyline fill="none" stroke="black" points="309.589,-664.52 439.899,-664.52 "/>
<text text-anchor="start" x="317.589" y="-646.52" font-family="Times,serif" font-size="14.00">autofill</text>
<text text-anchor="start" x="317.589" y="-629.72" font-family="Times,serif" font-size="14.00">resolve</text>
<polyline fill="none" stroke="black" points="309.589,-622.92 439.899,-622.92 "/>
<polyline fill="none" stroke="black" points="309.589,-598.92 439.899,-598.92 "/>
<text text-anchor="start" x="317.589" y="-580.92" font-family="Times,serif" font-size="14.00">_layout</text>
</g>
<!-- ApplicationController&#45;&gt;ValidatorsController -->
<g id="edge5" class="edge"><title>ApplicationController&#45;&gt;ValidatorsController</title>
<path fill="none" stroke="black" d="M378.891,-468.087C377.949,-505.236 376.975,-543.667 376.208,-573.943"/>
</g>
<!-- RegistrationsController -->
<g id="node5" class="node"><title>RegistrationsController</title>
<path fill="none" stroke="black" d="M768,-0.5C768,-0.5 891.428,-0.5 891.428,-0.5 897.428,-0.5 903.428,-6.5 903.428,-12.5 903.428,-12.5 903.428,-120.5 903.428,-120.5 903.428,-126.5 897.428,-132.5 891.428,-132.5 891.428,-132.5 768,-132.5 768,-132.5 762,-132.5 756,-126.5 756,-120.5 756,-120.5 756,-12.5 756,-12.5 756,-6.5 762,-0.5 768,-0.5"/>
<text text-anchor="middle" x="829.714" y="-114.5" font-family="Times,serif" font-size="14.00">RegistrationsController</text>
<polyline fill="none" stroke="black" points="756,-107.7 903.428,-107.7 "/>
<text text-anchor="start" x="764" y="-89.7" font-family="Times,serif" font-size="14.00">edit</text>
<text text-anchor="start" x="764" y="-72.9" font-family="Times,serif" font-size="14.00">redirect</text>
<text text-anchor="start" x="764" y="-56.1" font-family="Times,serif" font-size="14.00">update</text>
<polyline fill="none" stroke="black" points="756,-49.3 903.428,-49.3 "/>
<polyline fill="none" stroke="black" points="756,-25.3 903.428,-25.3 "/>
<text text-anchor="start" x="764" y="-7.3" font-family="Times,serif" font-size="14.00">_layout</text>
</g>
<!-- SessionsController -->
<g id="node7" class="node"><title>SessionsController</title>
<path fill="none" stroke="black" d="M348,-756.5C348,-756.5 458.187,-756.5 458.187,-756.5 464.187,-756.5 470.187,-762.5 470.187,-768.5 470.187,-768.5 470.187,-876.5 470.187,-876.5 470.187,-882.5 464.187,-888.5 458.187,-888.5 458.187,-888.5 348,-888.5 348,-888.5 342,-888.5 336,-882.5 336,-876.5 336,-876.5 336,-768.5 336,-768.5 336,-762.5 342,-756.5 348,-756.5"/>
<text text-anchor="middle" x="403.093" y="-870.5" font-family="Times,serif" font-size="14.00">SessionsController</text>
<polyline fill="none" stroke="black" points="336,-863.7 470.187,-863.7 "/>
<text text-anchor="start" x="344" y="-845.7" font-family="Times,serif" font-size="14.00">create</text>
<text text-anchor="start" x="344" y="-828.9" font-family="Times,serif" font-size="14.00">failure</text>
<text text-anchor="start" x="344" y="-812.1" font-family="Times,serif" font-size="14.00">sign_in_and_redirect</text>
<polyline fill="none" stroke="black" points="336,-805.3 470.187,-805.3 "/>
<polyline fill="none" stroke="black" points="336,-781.3 470.187,-781.3 "/>
<text text-anchor="start" x="344" y="-763.3" font-family="Times,serif" font-size="14.00">_layout</text>
</g>
</g>
</svg>
