<?xml version="1.0" encoding="UTF-8" standalone="no"?>
<!DOCTYPE svg PUBLIC "-//W3C//DTD SVG 1.1//EN"
 "http://www.w3.org/Graphics/SVG/1.1/DTD/svg11.dtd">
<!-- Generated by graphviz version 2.30.1 (20130711.0844)
 -->
<!-- Title: models_diagram Pages: 1 -->
<svg width="896pt" height="554pt"
 viewBox="0.00 0.00 896.22 554.00" xmlns="http://www.w3.org/2000/svg" xmlns:xlink="http://www.w3.org/1999/xlink">
<g id="graph0" class="graph" transform="scale(1 1) rotate(0) translate(4 550)">
<title>models_diagram</title>
<polygon fill="white" stroke="white" points="-4,5 -4,-550 893.218,-550 893.218,5 -4,5"/>
<!-- _diagram_info -->
<g id="node1" class="node"><title>_diagram_info</title>
<text text-anchor="start" x="126.53" y="-529" font-family="Times,serif" font-size="13.00">Models diagram</text>
<text text-anchor="start" x="126.53" y="-513.4" font-family="Times,serif" font-size="13.00">Date: Aug 16 2013 &#45; 09:41</text>
<text text-anchor="start" x="126.53" y="-497.8" font-family="Times,serif" font-size="13.00">Migration version: 20130809150653</text>
<text text-anchor="start" x="126.53" y="-482.2" font-family="Times,serif" font-size="13.00">Generated by RailRoady 1.1.0</text>
<text text-anchor="start" x="126.53" y="-466.6" font-family="Times,serif" font-size="13.00">http://railroady.prestonlee.com</text>
</g>
<!-- Ability -->
<g id="node2" class="node"><title>Ability</title>
<polygon fill="none" stroke="black" points="399.473,-521 344.963,-521 344.963,-485 399.473,-485 399.473,-521"/>
<text text-anchor="middle" x="372.218" y="-497.4" font-family="Times,serif" font-size="14.00">Ability</text>
</g>
<!-- Answer -->
<g id="node3" class="node"><title>Answer</title>
<ellipse fill="none" stroke="black" cx="84.2178" cy="-92" rx="41.1096" ry="18"/>
<text text-anchor="middle" x="84.2178" y="-86.4" font-family="Times,serif" font-size="14.00">Answer</text>
</g>
<!-- Response -->
<g id="node9" class="node"><title>Response</title>
<ellipse fill="none" stroke="black" cx="399.218" cy="-18" rx="48.0775" ry="18"/>
<text text-anchor="middle" x="399.218" y="-12.4" font-family="Times,serif" font-size="14.00">Response</text>
</g>
<!-- Answer&#45;&gt;Response -->
<g id="edge1" class="edge"><title>Answer&#45;&gt;Response</title>
<path fill="none" stroke="#8e4c40" d="M128.775,-81.8816C191.209,-69.0329 301.532,-46.0479 341.218,-36 345.112,-35.0141 349.138,-33.9429 353.17,-32.834"/>
<ellipse fill="none" stroke="#8e4c40" cx="124.584" cy="-82.7433" rx="4.00001" ry="4.00001"/>
<polygon fill="#8e4c40" stroke="#8e4c40" points="353.507,-32.7391 364.353,-34.3582 358.32,-31.383 363.132,-30.0269 363.132,-30.0269 363.132,-30.0269 358.32,-31.383 361.912,-25.6956 353.507,-32.7391 353.507,-32.7391"/>
</g>
<!-- Validation -->
<g id="node16" class="node"><title>Validation</title>
<ellipse fill="none" stroke="black" cx="68.2178" cy="-18" rx="50.5943" ry="18"/>
<text text-anchor="middle" x="68.2178" y="-12.4" font-family="Times,serif" font-size="14.00">Validation</text>
</g>
<!-- Answer&#45;&gt;Validation -->
<g id="edge2" class="edge"><title>Answer&#45;&gt;Validation</title>
<path fill="none" stroke="#15a4fc" d="M78.6813,-66.0858C77.2565,-59.6738 75.716,-52.7419 74.2666,-46.2195"/>
<ellipse fill="none" stroke="#15a4fc" cx="79.5583" cy="-70.0323" rx="4.00001" ry="4.00001"/>
<polygon fill="#15a4fc" stroke="#15a4fc" points="74.2629,-46.2025 76.4864,-35.4645 73.1782,-41.3216 72.0935,-36.4407 72.0935,-36.4407 72.0935,-36.4407 73.1782,-41.3216 67.7007,-37.4169 74.2629,-46.2025 74.2629,-46.2025"/>
</g>
<!-- Certificate -->
<g id="node4" class="node"><title>Certificate</title>
<ellipse fill="none" stroke="black" cx="478.218" cy="-404" rx="50.8888" ry="18"/>
<text text-anchor="middle" x="478.218" y="-398.4" font-family="Times,serif" font-size="14.00">Certificate</text>
</g>
<!-- Survey -->
<g id="node12" class="node"><title>Survey</title>
<ellipse fill="none" stroke="black" cx="266.218" cy="-330" rx="38.0929" ry="18"/>
<text text-anchor="middle" x="266.218" y="-324.4" font-family="Times,serif" font-size="14.00">Survey</text>
</g>
<!-- Certificate&#45;&gt;Survey -->
<g id="edge3" class="edge"><title>Certificate&#45;&gt;Survey</title>
<path fill="none" stroke="#945c79" d="M435.011,-388.326C396.63,-375.291 341.075,-356.423 304.322,-343.941"/>
<ellipse fill="none" stroke="#945c79" cx="438.946" cy="-389.662" rx="4.00001" ry="4.00001"/>
<ellipse fill="#945c79" stroke="#945c79" cx="300.109" cy="-342.51" rx="4.00001" ry="4.00001"/>
</g>
<!-- User -->
<g id="node15" class="node"><title>User</title>
<ellipse fill="none" stroke="black" cx="544.218" cy="-330" rx="28.9087" ry="18"/>
<text text-anchor="middle" x="544.218" y="-324.4" font-family="Times,serif" font-size="14.00">User</text>
</g>
<!-- Certificate&#45;&gt;User -->
<g id="edge4" class="edge"><title>Certificate&#45;&gt;User</title>
<path fill="none" stroke="#a0ed27" d="M498.657,-380.703C506.976,-371.627 516.548,-361.185 524.764,-352.222"/>
<ellipse fill="none" stroke="#a0ed27" cx="495.897" cy="-383.713" rx="4.00002" ry="4.00002"/>
<ellipse fill="#a0ed27" stroke="#a0ed27" cx="527.5" cy="-349.237" rx="4.00002" ry="4.00002"/>
</g>
<!-- Dataset -->
<g id="node5" class="node"><title>Dataset</title>
<ellipse fill="none" stroke="black" cx="495.218" cy="-240" rx="39.4899" ry="18"/>
<text text-anchor="middle" x="495.218" y="-234.4" font-family="Times,serif" font-size="14.00">Dataset</text>
</g>
<!-- Certificate&#45;&gt;Dataset -->
<g id="edge5" class="edge"><title>Certificate&#45;&gt;Dataset</title>
<path fill="none" stroke="#0b9c57" d="M475.813,-377.629C476.762,-347.064 482.13,-296.054 487.598,-265.763"/>
<ellipse fill="none" stroke="#0b9c57" cx="475.737" cy="-381.97" rx="4" ry="4"/>
<ellipse fill="#0b9c57" stroke="#0b9c57" cx="488.379" cy="-261.73" rx="4.00001" ry="4.00001"/>
</g>
<!-- ResponseSet -->
<g id="node11" class="node"><title>ResponseSet</title>
<ellipse fill="none" stroke="black" cx="478.218" cy="-503" rx="60.088" ry="18"/>
<text text-anchor="middle" x="478.218" y="-497.4" font-family="Times,serif" font-size="14.00">ResponseSet</text>
</g>
<!-- Dataset&#45;&gt;ResponseSet -->
<g id="edge6" class="edge"><title>Dataset&#45;&gt;ResponseSet</title>
<path fill="none" stroke="#52bf90" d="M528.208,-258.036C547.845,-270.164 571.05,-288.471 582.218,-312 589.079,-326.454 585.002,-332.244 582.218,-348 574.316,-392.71 571.363,-407.187 542.218,-442 531.15,-455.22 517.356,-468.481 505.411,-479.161"/>
<ellipse fill="none" stroke="#52bf90" cx="524.602" cy="-255.893" rx="4.00002" ry="4.00002"/>
<polygon fill="#52bf90" stroke="#52bf90" points="505.389,-479.181 494.906,-482.4 501.632,-482.481 497.876,-485.781 497.876,-485.781 497.876,-485.781 501.632,-482.481 500.846,-489.161 505.389,-479.181 505.389,-479.181"/>
</g>
<!-- Dataset&#45;&gt;Certificate -->
<g id="edge7" class="edge"><title>Dataset&#45;&gt;Certificate</title>
<path fill="none" stroke="#1dc467" d="M497.551,-268.468C496.46,-298.449 491.445,-346.146 486.242,-375.958"/>
<polygon fill="#1dc467" stroke="#1dc467" points="497.555,-268.288 502.268,-258.386 497.662,-263.289 497.769,-258.29 497.769,-258.29 497.769,-258.29 497.662,-263.289 493.27,-258.194 497.555,-268.288 497.555,-268.288"/>
<polygon fill="#1dc467" stroke="#1dc467" points="486.207,-376.144 479.923,-385.131 485.275,-381.057 484.344,-385.969 484.344,-385.969 484.344,-385.969 485.275,-381.057 488.765,-386.808 486.207,-376.144 486.207,-376.144"/>
</g>
<!-- Dependency -->
<g id="node6" class="node"><title>Dependency</title>
<ellipse fill="none" stroke="black" cx="235.218" cy="-92" rx="58.9477" ry="18"/>
<text text-anchor="middle" x="235.218" y="-86.4" font-family="Times,serif" font-size="14.00">Dependency</text>
</g>
<!-- DependencyCondition -->
<g id="node7" class="node"><title>DependencyCondition</title>
<ellipse fill="none" stroke="black" cx="235.218" cy="-18" rx="97.3956" ry="18"/>
<text text-anchor="middle" x="235.218" y="-12.4" font-family="Times,serif" font-size="14.00">DependencyCondition</text>
</g>
<!-- Dependency&#45;&gt;DependencyCondition -->
<g id="edge8" class="edge"><title>Dependency&#45;&gt;DependencyCondition</title>
<path fill="none" stroke="#1c19e5" d="M235.218,-65.7923C235.218,-59.5805 235.218,-52.8963 235.218,-46.5786"/>
<ellipse fill="none" stroke="#1c19e5" cx="235.218" cy="-69.937" rx="4" ry="4"/>
<polygon fill="#1c19e5" stroke="#1c19e5" points="235.218,-46.4407 239.718,-36.4406 235.218,-41.4407 235.218,-36.4407 235.218,-36.4407 235.218,-36.4407 235.218,-41.4407 230.718,-36.4407 235.218,-46.4407 235.218,-46.4407"/>
</g>
<!-- Question -->
<g id="node8" class="node"><title>Question</title>
<ellipse fill="none" stroke="black" cx="84.2178" cy="-166" rx="45.3604" ry="18"/>
<text text-anchor="middle" x="84.2178" y="-160.4" font-family="Times,serif" font-size="14.00">Question</text>
</g>
<!-- Question&#45;&gt;Answer -->
<g id="edge9" class="edge"><title>Question&#45;&gt;Answer</title>
<path fill="none" stroke="#a528f7" d="M84.2178,-139.792C84.2178,-133.58 84.2178,-126.896 84.2178,-120.579"/>
<ellipse fill="none" stroke="#a528f7" cx="84.2179" cy="-143.937" rx="4" ry="4"/>
<polygon fill="#a528f7" stroke="#a528f7" points="84.2179,-120.441 88.7178,-110.441 84.2179,-115.441 84.2178,-110.441 84.2178,-110.441 84.2178,-110.441 84.2179,-115.441 79.7178,-110.441 84.2179,-120.441 84.2179,-120.441"/>
</g>
<!-- Question&#45;&gt;Dependency -->
<g id="edge10" class="edge"><title>Question&#45;&gt;Dependency</title>
<path fill="none" stroke="#d78162" d="M119.64,-148.11C142.95,-136.995 173.438,-122.458 197.248,-111.105"/>
<ellipse fill="none" stroke="#d78162" cx="115.876" cy="-149.904" rx="4.00002" ry="4.00002"/>
<ellipse fill="#d78162" stroke="#d78162" cx="201.115" cy="-109.261" rx="4.00002" ry="4.00002"/>
</g>
<!-- ResponseCacheMap -->
<g id="node10" class="node"><title>ResponseCacheMap</title>
<ellipse fill="none" stroke="black" cx="646.218" cy="-503" rx="89.3224" ry="18"/>
<text text-anchor="middle" x="646.218" y="-497.4" font-family="Times,serif" font-size="14.00">ResponseCacheMap</text>
</g>
<!-- ResponseSet&#45;&gt;Response -->
<g id="edge11" class="edge"><title>ResponseSet&#45;&gt;Response</title>
<path fill="none" stroke="#f5cb44" d="M447.238,-481.418C425.102,-463.999 399.218,-436.826 399.218,-405 399.218,-405 399.218,-405 399.218,-91 399.218,-76.2051 399.218,-59.7001 399.218,-46.2288"/>
<ellipse fill="none" stroke="#f5cb44" cx="450.468" cy="-483.869" rx="4.00002" ry="4.00002"/>
<polygon fill="#f5cb44" stroke="#f5cb44" points="399.218,-46.1662 403.718,-36.1662 399.218,-41.1662 399.218,-36.1662 399.218,-36.1662 399.218,-36.1662 399.218,-41.1662 394.718,-36.1663 399.218,-46.1662 399.218,-46.1662"/>
</g>
<!-- ResponseSet&#45;&gt;Certificate -->
<g id="edge12" class="edge"><title>ResponseSet&#45;&gt;Certificate</title>
<path fill="none" stroke="#4cf5dd" d="M478.218,-476.227C478.218,-462.074 478.218,-444.584 478.218,-430.477"/>
<ellipse fill="none" stroke="#4cf5dd" cx="478.218" cy="-480.658" rx="4" ry="4"/>
<ellipse fill="#4cf5dd" stroke="#4cf5dd" cx="478.218" cy="-426.192" rx="4" ry="4"/>
</g>
<!-- SurveySection -->
<g id="node14" class="node"><title>SurveySection</title>
<ellipse fill="none" stroke="black" cx="84.2178" cy="-240" rx="67.0419" ry="18"/>
<text text-anchor="middle" x="84.2178" y="-234.4" font-family="Times,serif" font-size="14.00">SurveySection</text>
</g>
<!-- Survey&#45;&gt;SurveySection -->
<g id="edge13" class="edge"><title>Survey&#45;&gt;SurveySection</title>
<path fill="none" stroke="#a9ec8d" d="M236.492,-311.159C212.729,-296.953 182.402,-278.971 176.218,-276 162.701,-269.506 147.641,-263.352 133.685,-258.067"/>
<ellipse fill="none" stroke="#a9ec8d" cx="240.19" cy="-313.371" rx="4.00002" ry="4.00002"/>
<polygon fill="#a9ec8d" stroke="#a9ec8d" points="133.605,-258.038 125.798,-250.336 128.918,-256.296 124.231,-254.554 124.231,-254.554 124.231,-254.554 128.918,-256.296 122.663,-258.773 133.605,-258.038 133.605,-258.038"/>
<text text-anchor="middle" x="229.77" y="-279.4" font-family="Times,serif" font-size="14.00">sections</text>
</g>
<!-- Survey&#45;&gt;SurveySection -->
<g id="edge14" class="edge"><title>Survey&#45;&gt;SurveySection</title>
<path fill="none" stroke="#462d3c" d="M219.701,-328.813C159.243,-327.466 58.6231,-321.084 35.335,-294 26.1635,-283.333 34.465,-271.818 46.6659,-262.255"/>
<ellipse fill="none" stroke="#462d3c" cx="223.954" cy="-328.894" rx="4" ry="4"/>
<polygon fill="#462d3c" stroke="#462d3c" points="46.9413,-262.06 57.7029,-259.953 51.0218,-259.17 55.1023,-256.281 55.1023,-256.281 55.1023,-256.281 51.0218,-259.17 52.5017,-252.608 46.9413,-262.06 46.9413,-262.06"/>
<text text-anchor="middle" x="103.659" y="-279.4" font-family="Times,serif" font-size="14.00">sections_with_questions</text>
</g>
<!-- Survey&#45;&gt;ResponseSet -->
<g id="edge15" class="edge"><title>Survey&#45;&gt;ResponseSet</title>
<path fill="none" stroke="#a361af" d="M286.983,-352.536C309.96,-375.835 348.595,-413.471 385.218,-442 403.418,-456.178 425.004,-470.255 442.796,-481.207"/>
<ellipse fill="none" stroke="#a361af" cx="284.012" cy="-349.506" rx="4.00002" ry="4.00002"/>
<polygon fill="#a361af" stroke="#a361af" points="443.173,-481.437 449.378,-490.478 447.445,-484.035 451.716,-486.634 451.716,-486.634 451.716,-486.634 447.445,-484.035 454.055,-482.789 443.173,-481.437 443.173,-481.437"/>
</g>
<!-- SurveyTranslation -->
<g id="node17" class="node"><title>SurveyTranslation</title>
<ellipse fill="none" stroke="black" cx="251.218" cy="-240" rx="82.0594" ry="18"/>
<text text-anchor="middle" x="251.218" y="-234.4" font-family="Times,serif" font-size="14.00">SurveyTranslation</text>
</g>
<!-- Survey&#45;&gt;SurveyTranslation -->
<g id="edge16" class="edge"><title>Survey&#45;&gt;SurveyTranslation</title>
<path fill="none" stroke="#b09574" d="M261.937,-303.888C260.03,-292.697 257.779,-279.494 255.834,-268.083"/>
<ellipse fill="none" stroke="#b09574" cx="262.654" cy="-308.09" rx="4.00001" ry="4.00001"/>
<polygon fill="#b09574" stroke="#b09574" points="255.833,-268.073 258.588,-257.459 254.992,-263.144 254.152,-258.215 254.152,-258.215 254.152,-258.215 254.992,-263.144 249.716,-258.972 255.833,-268.073 255.833,-268.073"/>
<text text-anchor="middle" x="291.49" y="-279.4" font-family="Times,serif" font-size="14.00">translations</text>
</g>
<!-- Survey&#45;&gt;Question -->
<g id="edge17" class="edge"><title>Survey&#45;&gt;Question</title>
<path fill="none" stroke="#8eeb36" d="M217.962,-327.033C157.186,-323.7 57.0811,-315.108 27.2178,-294 0.191934,-274.897 -6.83479,-251.474 8.21784,-222 16.2541,-206.264 31.1273,-193.988 45.5998,-185.066"/>
<polygon fill="#8eeb36" stroke="#8eeb36" points="218.108,-327.04 227.86,-332.054 223.101,-327.3 228.094,-327.56 228.094,-327.56 228.094,-327.56 223.101,-327.3 228.328,-323.066 218.108,-327.04 218.108,-327.04"/>
<polygon fill="#8eeb36" stroke="#8eeb36" points="45.8291,-184.934 56.7406,-183.842 50.1618,-182.438 54.4945,-179.942 54.4945,-179.942 54.4945,-179.942 50.1618,-182.438 52.2485,-176.043 45.8291,-184.934 45.8291,-184.934"/>
</g>
<!-- Survey&#45;&gt;Dependency -->
<g id="edge18" class="edge"><title>Survey&#45;&gt;Dependency</title>
<path fill="none" stroke="#ac7a2f" d="M303.392,-312.816C312.037,-307.747 320.628,-301.479 327.218,-294 348.829,-269.476 353.31,-252.747 342.218,-222 326.558,-178.592 289.236,-139.458 263.101,-115.962"/>
<polygon fill="#ac7a2f" stroke="#ac7a2f" points="303.236,-312.9 292.3,-313.709 298.841,-315.283 294.445,-317.665 294.445,-317.665 294.445,-317.665 298.841,-315.283 296.589,-321.622 303.236,-312.9 303.236,-312.9"/>
<polygon fill="#ac7a2f" stroke="#ac7a2f" points="262.899,-115.785 258.355,-105.804 259.142,-112.485 255.386,-109.185 255.386,-109.185 255.386,-109.185 259.142,-112.485 252.416,-112.566 262.899,-115.785 262.899,-115.785"/>
</g>
<!-- SurveyParsing -->
<g id="node13" class="node"><title>SurveyParsing</title>
<ellipse fill="none" stroke="black" cx="821.218" cy="-503" rx="67.0489" ry="18"/>
<text text-anchor="middle" x="821.218" y="-497.4" font-family="Times,serif" font-size="14.00">SurveyParsing</text>
</g>
<!-- SurveySection&#45;&gt;Question -->
<g id="edge19" class="edge"><title>SurveySection&#45;&gt;Question</title>
<path fill="none" stroke="#d6b79b" d="M84.2178,-213.792C84.2178,-207.58 84.2178,-200.896 84.2178,-194.579"/>
<ellipse fill="none" stroke="#d6b79b" cx="84.2179" cy="-217.937" rx="4" ry="4"/>
<polygon fill="#d6b79b" stroke="#d6b79b" points="84.2179,-194.441 88.7178,-184.441 84.2179,-189.441 84.2178,-184.441 84.2178,-184.441 84.2178,-184.441 84.2179,-189.441 79.7178,-184.441 84.2179,-194.441 84.2179,-194.441"/>
</g>
<!-- User&#45;&gt;Dataset -->
<g id="edge20" class="edge"><title>User&#45;&gt;Dataset</title>
<path fill="none" stroke="#f48145" d="M531.307,-305.813C524.588,-293.746 516.358,-278.965 509.454,-266.568"/>
<ellipse fill="none" stroke="#f48145" cx="533.285" cy="-309.365" rx="4.00002" ry="4.00002"/>
<polygon fill="#f48145" stroke="#f48145" points="509.346,-266.373 508.413,-255.447 506.914,-262.005 504.481,-257.636 504.481,-257.636 504.481,-257.636 506.914,-262.005 500.55,-259.825 509.346,-266.373 509.346,-266.373"/>
</g>
<!-- User&#45;&gt;ResponseSet -->
<g id="edge21" class="edge"><title>User&#45;&gt;ResponseSet</title>
<path fill="none" stroke="#09267b" d="M546.337,-356.094C547.033,-374.831 546.085,-400.755 538.218,-422 530.435,-443.017 515.244,-463.181 502.095,-478.007"/>
<ellipse fill="none" stroke="#09267b" cx="546.128" cy="-352.029" rx="4" ry="4"/>
<polygon fill="#09267b" stroke="#09267b" points="501.825,-478.302 491.746,-482.623 498.443,-481.984 495.061,-485.667 495.061,-485.667 495.061,-485.667 498.443,-481.984 498.375,-488.711 501.825,-478.302 501.825,-478.302"/>
</g>
</g>
</svg>
