<?xml version="1.0" encoding="UTF-8" standalone="no"?>
<!DOCTYPE svg PUBLIC "-//W3C//DTD SVG 1.1//EN"
 "http://www.w3.org/Graphics/SVG/1.1/DTD/svg11.dtd">
<!-- Generated by graphviz version 2.30.1 (20130711.0844)
 -->
<!-- Title: models_diagram Pages: 1 -->
<svg width="993pt" height="2640pt"
 viewBox="0.00 0.00 993.00 2640.00" xmlns="http://www.w3.org/2000/svg" xmlns:xlink="http://www.w3.org/1999/xlink">
<g id="graph0" class="graph" transform="scale(1 1) rotate(0) translate(4 2636)">
<title>models_diagram</title>
<polygon fill="white" stroke="white" points="-4,5 -4,-2636 990,-2636 990,5 -4,5"/>
<!-- _diagram_info -->
<g id="node1" class="node"><title>_diagram_info</title>
<text text-anchor="start" x="227.312" y="-2548" font-family="Times,serif" font-size="13.00">Models diagram</text>
<text text-anchor="start" x="227.312" y="-2532.4" font-family="Times,serif" font-size="13.00">Date: Aug 16 2013 &#45; 09:41</text>
<text text-anchor="start" x="227.312" y="-2516.8" font-family="Times,serif" font-size="13.00">Migration version: 20130809150653</text>
<text text-anchor="start" x="227.312" y="-2501.2" font-family="Times,serif" font-size="13.00">Generated by RailRoady 1.1.0</text>
<text text-anchor="start" x="227.312" y="-2485.6" font-family="Times,serif" font-size="13.00">http://railroady.prestonlee.com</text>
</g>
<!-- Ability -->
<g id="node2" class="node"><title>Ability</title>
<polygon fill="none" stroke="black" points="445.166,-2497.2 445.166,-2546.8 500.834,-2546.8 500.834,-2497.2 445.166,-2497.2"/>
<text text-anchor="middle" x="473" y="-2528.8" font-family="Times,serif" font-size="14.00">Ability</text>
<polyline fill="none" stroke="black" points="445.166,-2522 500.834,-2522 "/>
<text text-anchor="middle" x="473" y="-2504" font-family="Times,serif" font-size="14.00"> </text>
</g>
<!-- Answer -->
<g id="node3" class="node"><title>Answer</title>
<path fill="none" stroke="black" d="M66.5464,-374.4C66.5464,-374.4 235.454,-374.4 235.454,-374.4 241.454,-374.4 247.454,-380.4 247.454,-386.4 247.454,-386.4 247.454,-865.6 247.454,-865.6 247.454,-871.6 241.454,-877.6 235.454,-877.6 235.454,-877.6 66.5464,-877.6 66.5464,-877.6 60.5464,-877.6 54.5464,-871.6 54.5464,-865.6 54.5464,-865.6 54.5464,-386.4 54.5464,-386.4 54.5464,-380.4 60.5464,-374.4 66.5464,-374.4"/>
<text text-anchor="middle" x="151" y="-859.6" font-family="Times,serif" font-size="14.00">Answer</text>
<polyline fill="none" stroke="black" points="54.5464,-852.8 247.454,-852.8 "/>
<text text-anchor="start" x="62.5464" y="-834.8" font-family="Times,serif" font-size="14.00">id :integer</text>
<text text-anchor="start" x="62.5464" y="-818" font-family="Times,serif" font-size="14.00">question_id :integer</text>
<text text-anchor="start" x="62.5464" y="-801.2" font-family="Times,serif" font-size="14.00">text :text</text>
<text text-anchor="start" x="62.5464" y="-784.4" font-family="Times,serif" font-size="14.00">short_text :text</text>
<text text-anchor="start" x="62.5464" y="-767.6" font-family="Times,serif" font-size="14.00">help_text :text</text>
<text text-anchor="start" x="62.5464" y="-750.8" font-family="Times,serif" font-size="14.00">weight :integer</text>
<text text-anchor="start" x="62.5464" y="-734" font-family="Times,serif" font-size="14.00">response_class :string</text>
<text text-anchor="start" x="62.5464" y="-717.2" font-family="Times,serif" font-size="14.00">reference_identifier :string</text>
<text text-anchor="start" x="62.5464" y="-700.4" font-family="Times,serif" font-size="14.00">data_export_identifier :string</text>
<text text-anchor="start" x="62.5464" y="-683.6" font-family="Times,serif" font-size="14.00">common_namespace :string</text>
<text text-anchor="start" x="62.5464" y="-666.8" font-family="Times,serif" font-size="14.00">common_identifier :string</text>
<text text-anchor="start" x="62.5464" y="-650" font-family="Times,serif" font-size="14.00">display_order :integer</text>
<text text-anchor="start" x="62.5464" y="-633.2" font-family="Times,serif" font-size="14.00">is_exclusive :boolean</text>
<text text-anchor="start" x="62.5464" y="-616.4" font-family="Times,serif" font-size="14.00">display_length :integer</text>
<text text-anchor="start" x="62.5464" y="-599.6" font-family="Times,serif" font-size="14.00">custom_class :string</text>
<text text-anchor="start" x="62.5464" y="-582.8" font-family="Times,serif" font-size="14.00">custom_renderer :string</text>
<text text-anchor="start" x="62.5464" y="-566" font-family="Times,serif" font-size="14.00">created_at :datetime</text>
<text text-anchor="start" x="62.5464" y="-549.2" font-family="Times,serif" font-size="14.00">updated_at :datetime</text>
<text text-anchor="start" x="62.5464" y="-532.4" font-family="Times,serif" font-size="14.00">default_value :string</text>
<text text-anchor="start" x="62.5464" y="-515.6" font-family="Times,serif" font-size="14.00">api_id :string</text>
<text text-anchor="start" x="62.5464" y="-498.8" font-family="Times,serif" font-size="14.00">display_type :string</text>
<text text-anchor="start" x="62.5464" y="-482" font-family="Times,serif" font-size="14.00">input_mask :string</text>
<text text-anchor="start" x="62.5464" y="-465.2" font-family="Times,serif" font-size="14.00">input_mask_placeholder :string</text>
<text text-anchor="start" x="62.5464" y="-448.4" font-family="Times,serif" font-size="14.00">requirement :string</text>
<text text-anchor="start" x="62.5464" y="-431.6" font-family="Times,serif" font-size="14.00">help_text_more_url :string</text>
<text text-anchor="start" x="62.5464" y="-414.8" font-family="Times,serif" font-size="14.00">input_type :string</text>
<text text-anchor="start" x="62.5464" y="-398" font-family="Times,serif" font-size="14.00">placeholder :string</text>
<text text-anchor="start" x="62.5464" y="-381.2" font-family="Times,serif" font-size="14.00">text_as_statement :string</text>
</g>
<!-- Response -->
<g id="node9" class="node"><title>Response</title>
<path fill="none" stroke="black" d="M417.936,-0.4C417.936,-0.4 558.064,-0.4 558.064,-0.4 564.064,-0.4 570.064,-6.4 570.064,-12.4 570.064,-12.4 570.064,-323.6 570.064,-323.6 570.064,-329.6 564.064,-335.6 558.064,-335.6 558.064,-335.6 417.936,-335.6 417.936,-335.6 411.936,-335.6 405.936,-329.6 405.936,-323.6 405.936,-323.6 405.936,-12.4 405.936,-12.4 405.936,-6.4 411.936,-0.4 417.936,-0.4"/>
<text text-anchor="middle" x="488" y="-317.6" font-family="Times,serif" font-size="14.00">Response</text>
<polyline fill="none" stroke="black" points="405.936,-310.8 570.064,-310.8 "/>
<text text-anchor="start" x="413.936" y="-292.8" font-family="Times,serif" font-size="14.00">id :integer</text>
<text text-anchor="start" x="413.936" y="-276" font-family="Times,serif" font-size="14.00">response_set_id :integer</text>
<text text-anchor="start" x="413.936" y="-259.2" font-family="Times,serif" font-size="14.00">question_id :integer</text>
<text text-anchor="start" x="413.936" y="-242.4" font-family="Times,serif" font-size="14.00">answer_id :integer</text>
<text text-anchor="start" x="413.936" y="-225.6" font-family="Times,serif" font-size="14.00">datetime_value :datetime</text>
<text text-anchor="start" x="413.936" y="-208.8" font-family="Times,serif" font-size="14.00">integer_value :integer</text>
<text text-anchor="start" x="413.936" y="-192" font-family="Times,serif" font-size="14.00">float_value :float</text>
<text text-anchor="start" x="413.936" y="-175.2" font-family="Times,serif" font-size="14.00">unit :string</text>
<text text-anchor="start" x="413.936" y="-158.4" font-family="Times,serif" font-size="14.00">text_value :text</text>
<text text-anchor="start" x="413.936" y="-141.6" font-family="Times,serif" font-size="14.00">string_value :string</text>
<text text-anchor="start" x="413.936" y="-124.8" font-family="Times,serif" font-size="14.00">response_other :string</text>
<text text-anchor="start" x="413.936" y="-108" font-family="Times,serif" font-size="14.00">response_group :string</text>
<text text-anchor="start" x="413.936" y="-91.2" font-family="Times,serif" font-size="14.00">created_at :datetime</text>
<text text-anchor="start" x="413.936" y="-74.4" font-family="Times,serif" font-size="14.00">updated_at :datetime</text>
<text text-anchor="start" x="413.936" y="-57.6" font-family="Times,serif" font-size="14.00">survey_section_id :integer</text>
<text text-anchor="start" x="413.936" y="-40.8" font-family="Times,serif" font-size="14.00">api_id :string</text>
<text text-anchor="start" x="413.936" y="-24" font-family="Times,serif" font-size="14.00">error :boolean</text>
<text text-anchor="start" x="413.936" y="-7.2" font-family="Times,serif" font-size="14.00">autocompleted :boolean</text>
</g>
<!-- Answer&#45;&gt;Response -->
<g id="edge1" class="edge"><title>Answer&#45;&gt;Response</title>
<path fill="none" stroke="#ca6263" d="M253.62,-376.123C254.408,-375.408 255.201,-374.701 256,-374 304.479,-331.496 345.311,-375.842 396,-336 396.74,-335.418 397.475,-334.829 398.205,-334.232"/>
<ellipse fill="none" stroke="#ca6263" cx="250.603" cy="-378.983" rx="4.00002" ry="4.00002"/>
<polygon fill="#ca6263" stroke="#ca6263" points="398.304,-334.146 408.794,-330.952 402.068,-330.855 405.833,-327.564 405.833,-327.564 405.833,-327.564 402.068,-330.855 402.871,-324.176 398.304,-334.146 398.304,-334.146"/>
</g>
<!-- Validation -->
<g id="node16" class="node"><title>Validation</title>
<ellipse fill="none" stroke="black" cx="151" cy="-168" rx="50.5943" ry="18"/>
<text text-anchor="middle" x="151" y="-162.4" font-family="Times,serif" font-size="14.00">Validation</text>
</g>
<!-- Answer&#45;&gt;Validation -->
<g id="edge2" class="edge"><title>Answer&#45;&gt;Validation</title>
<path fill="none" stroke="#9d4c03" d="M151,-365.956C151,-297.037 151,-231.974 151,-196.593"/>
<ellipse fill="none" stroke="#9d4c03" cx="151" cy="-370.322" rx="4" ry="4"/>
<polygon fill="#9d4c03" stroke="#9d4c03" points="151,-196.181 155.5,-186.181 151,-191.181 151,-186.181 151,-186.181 151,-186.181 151,-191.181 146.5,-186.181 151,-196.181 151,-196.181"/>
</g>
<!-- Certificate -->
<g id="node4" class="node"><title>Certificate</title>
<path fill="none" stroke="black" d="M528.157,-2206.4C528.157,-2206.4 655.843,-2206.4 655.843,-2206.4 661.843,-2206.4 667.843,-2212.4 667.843,-2218.4 667.843,-2218.4 667.843,-2361.6 667.843,-2361.6 667.843,-2367.6 661.843,-2373.6 655.843,-2373.6 655.843,-2373.6 528.157,-2373.6 528.157,-2373.6 522.157,-2373.6 516.157,-2367.6 516.157,-2361.6 516.157,-2361.6 516.157,-2218.4 516.157,-2218.4 516.157,-2212.4 522.157,-2206.4 528.157,-2206.4"/>
<text text-anchor="middle" x="592" y="-2355.6" font-family="Times,serif" font-size="14.00">Certificate</text>
<polyline fill="none" stroke="black" points="516.157,-2348.8 667.843,-2348.8 "/>
<text text-anchor="start" x="524.157" y="-2330.8" font-family="Times,serif" font-size="14.00">id :integer</text>
<text text-anchor="start" x="524.157" y="-2314" font-family="Times,serif" font-size="14.00">response_set_id :integer</text>
<text text-anchor="start" x="524.157" y="-2297.2" font-family="Times,serif" font-size="14.00">name :text</text>
<text text-anchor="start" x="524.157" y="-2280.4" font-family="Times,serif" font-size="14.00">created_at :datetime</text>
<text text-anchor="start" x="524.157" y="-2263.6" font-family="Times,serif" font-size="14.00">updated_at :datetime</text>
<text text-anchor="start" x="524.157" y="-2246.8" font-family="Times,serif" font-size="14.00">attained_level :string</text>
<text text-anchor="start" x="524.157" y="-2230" font-family="Times,serif" font-size="14.00">curator :string</text>
<text text-anchor="start" x="524.157" y="-2213.2" font-family="Times,serif" font-size="14.00">published :boolean</text>
</g>
<!-- Survey -->
<g id="node12" class="node"><title>Survey</title>
<path fill="none" stroke="black" d="M277.546,-1764.8C277.546,-1764.8 432.454,-1764.8 432.454,-1764.8 438.454,-1764.8 444.454,-1770.8 444.454,-1776.8 444.454,-1776.8 444.454,-2155.2 444.454,-2155.2 444.454,-2161.2 438.454,-2167.2 432.454,-2167.2 432.454,-2167.2 277.546,-2167.2 277.546,-2167.2 271.546,-2167.2 265.546,-2161.2 265.546,-2155.2 265.546,-2155.2 265.546,-1776.8 265.546,-1776.8 265.546,-1770.8 271.546,-1764.8 277.546,-1764.8"/>
<text text-anchor="middle" x="355" y="-2149.2" font-family="Times,serif" font-size="14.00">Survey</text>
<polyline fill="none" stroke="black" points="265.546,-2142.4 444.454,-2142.4 "/>
<text text-anchor="start" x="273.546" y="-2124.4" font-family="Times,serif" font-size="14.00">id :integer</text>
<text text-anchor="start" x="273.546" y="-2107.6" font-family="Times,serif" font-size="14.00">title :string</text>
<text text-anchor="start" x="273.546" y="-2090.8" font-family="Times,serif" font-size="14.00">description :text</text>
<text text-anchor="start" x="273.546" y="-2074" font-family="Times,serif" font-size="14.00">access_code :string</text>
<text text-anchor="start" x="273.546" y="-2057.2" font-family="Times,serif" font-size="14.00">reference_identifier :string</text>
<text text-anchor="start" x="273.546" y="-2040.4" font-family="Times,serif" font-size="14.00">data_export_identifier :string</text>
<text text-anchor="start" x="273.546" y="-2023.6" font-family="Times,serif" font-size="14.00">common_namespace :string</text>
<text text-anchor="start" x="273.546" y="-2006.8" font-family="Times,serif" font-size="14.00">common_identifier :string</text>
<text text-anchor="start" x="273.546" y="-1990" font-family="Times,serif" font-size="14.00">active_at :datetime</text>
<text text-anchor="start" x="273.546" y="-1973.2" font-family="Times,serif" font-size="14.00">inactive_at :datetime</text>
<text text-anchor="start" x="273.546" y="-1956.4" font-family="Times,serif" font-size="14.00">css_url :string</text>
<text text-anchor="start" x="273.546" y="-1939.6" font-family="Times,serif" font-size="14.00">custom_class :string</text>
<text text-anchor="start" x="273.546" y="-1922.8" font-family="Times,serif" font-size="14.00">created_at :datetime</text>
<text text-anchor="start" x="273.546" y="-1906" font-family="Times,serif" font-size="14.00">updated_at :datetime</text>
<text text-anchor="start" x="273.546" y="-1889.2" font-family="Times,serif" font-size="14.00">display_order :integer</text>
<text text-anchor="start" x="273.546" y="-1872.4" font-family="Times,serif" font-size="14.00">api_id :string</text>
<text text-anchor="start" x="273.546" y="-1855.6" font-family="Times,serif" font-size="14.00">survey_version :integer</text>
<text text-anchor="start" x="273.546" y="-1838.8" font-family="Times,serif" font-size="14.00">dataset_title :string</text>
<text text-anchor="start" x="273.546" y="-1822" font-family="Times,serif" font-size="14.00">dataset_curator :string</text>
<text text-anchor="start" x="273.546" y="-1805.2" font-family="Times,serif" font-size="14.00">full_title :string</text>
<text text-anchor="start" x="273.546" y="-1788.4" font-family="Times,serif" font-size="14.00">meta_map :string</text>
<text text-anchor="start" x="273.546" y="-1771.6" font-family="Times,serif" font-size="14.00">status :string</text>
</g>
<!-- Certificate&#45;&gt;Survey -->
<g id="edge3" class="edge"><title>Certificate&#45;&gt;Survey</title>
<path fill="none" stroke="#25f3ce" d="M525.986,-2199.31C502.283,-2167.11 475.069,-2130.13 449.425,-2095.29"/>
<ellipse fill="none" stroke="#25f3ce" cx="528.596" cy="-2202.86" rx="4.00002" ry="4.00002"/>
<ellipse fill="#25f3ce" stroke="#25f3ce" cx="447.027" cy="-2092.03" rx="4.00002" ry="4.00002"/>
</g>
<!-- User -->
<g id="node15" class="node"><title>User</title>
<path fill="none" stroke="black" d="M605.722,-1815.2C605.722,-1815.2 786.278,-1815.2 786.278,-1815.2 792.278,-1815.2 798.278,-1821.2 798.278,-1827.2 798.278,-1827.2 798.278,-2104.8 798.278,-2104.8 798.278,-2110.8 792.278,-2116.8 786.278,-2116.8 786.278,-2116.8 605.722,-2116.8 605.722,-2116.8 599.722,-2116.8 593.722,-2110.8 593.722,-2104.8 593.722,-2104.8 593.722,-1827.2 593.722,-1827.2 593.722,-1821.2 599.722,-1815.2 605.722,-1815.2"/>
<text text-anchor="middle" x="696" y="-2098.8" font-family="Times,serif" font-size="14.00">User</text>
<polyline fill="none" stroke="black" points="593.722,-2092 798.278,-2092 "/>
<text text-anchor="start" x="601.722" y="-2074" font-family="Times,serif" font-size="14.00">id :integer</text>
<text text-anchor="start" x="601.722" y="-2057.2" font-family="Times,serif" font-size="14.00">email :string</text>
<text text-anchor="start" x="601.722" y="-2040.4" font-family="Times,serif" font-size="14.00">encrypted_password :string</text>
<text text-anchor="start" x="601.722" y="-2023.6" font-family="Times,serif" font-size="14.00">reset_password_token :string</text>
<text text-anchor="start" x="601.722" y="-2006.8" font-family="Times,serif" font-size="14.00">reset_password_sent_at :datetime</text>
<text text-anchor="start" x="601.722" y="-1990" font-family="Times,serif" font-size="14.00">remember_created_at :datetime</text>
<text text-anchor="start" x="601.722" y="-1973.2" font-family="Times,serif" font-size="14.00">sign_in_count :integer</text>
<text text-anchor="start" x="601.722" y="-1956.4" font-family="Times,serif" font-size="14.00">current_sign_in_at :datetime</text>
<text text-anchor="start" x="601.722" y="-1939.6" font-family="Times,serif" font-size="14.00">last_sign_in_at :datetime</text>
<text text-anchor="start" x="601.722" y="-1922.8" font-family="Times,serif" font-size="14.00">current_sign_in_ip :string</text>
<text text-anchor="start" x="601.722" y="-1906" font-family="Times,serif" font-size="14.00">last_sign_in_ip :string</text>
<text text-anchor="start" x="601.722" y="-1889.2" font-family="Times,serif" font-size="14.00">created_at :datetime</text>
<text text-anchor="start" x="601.722" y="-1872.4" font-family="Times,serif" font-size="14.00">updated_at :datetime</text>
<text text-anchor="start" x="601.722" y="-1855.6" font-family="Times,serif" font-size="14.00">first_name :string</text>
<text text-anchor="start" x="601.722" y="-1838.8" font-family="Times,serif" font-size="14.00">last_name :string</text>
<text text-anchor="start" x="601.722" y="-1822" font-family="Times,serif" font-size="14.00">default_jurisdiction :string</text>
</g>
<!-- Certificate&#45;&gt;User -->
<g id="edge4" class="edge"><title>Certificate&#45;&gt;User</title>
<path fill="none" stroke="#1a2582" d="M621.295,-2198.3C628.722,-2175.3 636.919,-2149.93 645.08,-2124.66"/>
<ellipse fill="none" stroke="#1a2582" cx="620.012" cy="-2202.27" rx="4.00001" ry="4.00001"/>
<ellipse fill="#1a2582" stroke="#1a2582" cx="646.381" cy="-2120.63" rx="4.00001" ry="4.00001"/>
</g>
<!-- Dataset -->
<g id="node5" class="node"><title>Dataset</title>
<path fill="none" stroke="black" d="M553.484,-1517.2C553.484,-1517.2 690.516,-1517.2 690.516,-1517.2 696.516,-1517.2 702.516,-1523.2 702.516,-1529.2 702.516,-1529.2 702.516,-1638.8 702.516,-1638.8 702.516,-1644.8 696.516,-1650.8 690.516,-1650.8 690.516,-1650.8 553.484,-1650.8 553.484,-1650.8 547.484,-1650.8 541.484,-1644.8 541.484,-1638.8 541.484,-1638.8 541.484,-1529.2 541.484,-1529.2 541.484,-1523.2 547.484,-1517.2 553.484,-1517.2"/>
<text text-anchor="middle" x="622" y="-1632.8" font-family="Times,serif" font-size="14.00">Dataset</text>
<polyline fill="none" stroke="black" points="541.484,-1626 702.516,-1626 "/>
<text text-anchor="start" x="549.484" y="-1608" font-family="Times,serif" font-size="14.00">id :integer</text>
<text text-anchor="start" x="549.484" y="-1591.2" font-family="Times,serif" font-size="14.00">title :string</text>
<text text-anchor="start" x="549.484" y="-1574.4" font-family="Times,serif" font-size="14.00">user_id :integer</text>
<text text-anchor="start" x="549.484" y="-1557.6" font-family="Times,serif" font-size="14.00">created_at :datetime</text>
<text text-anchor="start" x="549.484" y="-1540.8" font-family="Times,serif" font-size="14.00">updated_at :datetime</text>
<text text-anchor="start" x="549.484" y="-1524" font-family="Times,serif" font-size="14.00">documentation_url :string</text>
</g>
<!-- Certificate&#45;&gt;Dataset -->
<g id="edge5" class="edge"><title>Certificate&#45;&gt;Dataset</title>
<path fill="none" stroke="#428311" d="M577.958,-2197.94C568.224,-2093.02 560.499,-1915.57 576,-1764 579.572,-1729.08 586.966,-1690.91 594.938,-1658.83"/>
<ellipse fill="none" stroke="#428311" cx="578.345" cy="-2202.01" rx="4" ry="4"/>
<ellipse fill="#428311" stroke="#428311" cx="595.99" cy="-1654.68" rx="4.00001" ry="4.00001"/>
</g>
<!-- ResponseSet -->
<g id="node11" class="node"><title>ResponseSet</title>
<path fill="none" stroke="black" d="M530.498,-2413.2C530.498,-2413.2 653.502,-2413.2 653.502,-2413.2 659.502,-2413.2 665.502,-2419.2 665.502,-2425.2 665.502,-2425.2 665.502,-2618.8 665.502,-2618.8 665.502,-2624.8 659.502,-2630.8 653.502,-2630.8 653.502,-2630.8 530.498,-2630.8 530.498,-2630.8 524.498,-2630.8 518.498,-2624.8 518.498,-2618.8 518.498,-2618.8 518.498,-2425.2 518.498,-2425.2 518.498,-2419.2 524.498,-2413.2 530.498,-2413.2"/>
<text text-anchor="middle" x="592" y="-2612.8" font-family="Times,serif" font-size="14.00">ResponseSet</text>
<polyline fill="none" stroke="black" points="518.498,-2606 665.502,-2606 "/>
<text text-anchor="start" x="526.498" y="-2588" font-family="Times,serif" font-size="14.00">id :integer</text>
<text text-anchor="start" x="526.498" y="-2571.2" font-family="Times,serif" font-size="14.00">user_id :integer</text>
<text text-anchor="start" x="526.498" y="-2554.4" font-family="Times,serif" font-size="14.00">survey_id :integer</text>
<text text-anchor="start" x="526.498" y="-2537.6" font-family="Times,serif" font-size="14.00">access_code :string</text>
<text text-anchor="start" x="526.498" y="-2520.8" font-family="Times,serif" font-size="14.00">started_at :datetime</text>
<text text-anchor="start" x="526.498" y="-2504" font-family="Times,serif" font-size="14.00">completed_at :datetime</text>
<text text-anchor="start" x="526.498" y="-2487.2" font-family="Times,serif" font-size="14.00">created_at :datetime</text>
<text text-anchor="start" x="526.498" y="-2470.4" font-family="Times,serif" font-size="14.00">updated_at :datetime</text>
<text text-anchor="start" x="526.498" y="-2453.6" font-family="Times,serif" font-size="14.00">api_id :string</text>
<text text-anchor="start" x="526.498" y="-2436.8" font-family="Times,serif" font-size="14.00">dataset_id :integer</text>
<text text-anchor="start" x="526.498" y="-2420" font-family="Times,serif" font-size="14.00">aasm_state :string</text>
</g>
<!-- Dataset&#45;&gt;ResponseSet -->
<g id="edge6" class="edge"><title>Dataset&#45;&gt;ResponseSet</title>
<path fill="none" stroke="#1abb3d" d="M709.051,-1644.01C746.697,-1674.85 786.719,-1716.16 807,-1764 877.078,-1929.32 848.592,-1993.33 807,-2168 778.391,-2288.15 748.59,-2313.56 674,-2412 673.216,-2413.04 672.427,-2414.08 671.635,-2415.12"/>
<ellipse fill="none" stroke="#1abb3d" cx="705.659" cy="-1641.27" rx="4.00002" ry="4.00002"/>
<polygon fill="#1abb3d" stroke="#1abb3d" points="671.539,-2415.25 661.916,-2420.51 668.522,-2419.24 665.505,-2423.22 665.505,-2423.22 665.505,-2423.22 668.522,-2419.24 669.093,-2425.94 671.539,-2415.25 671.539,-2415.25"/>
</g>
<!-- Dataset&#45;&gt;Certificate -->
<g id="edge7" class="edge"><title>Dataset&#45;&gt;Certificate</title>
<path fill="none" stroke="#641d9f" d="M611.07,-1660.87C604.654,-1692.53 597.496,-1729.82 594,-1764 578.608,-1914.51 586.116,-2090.53 590.848,-2195.72"/>
<polygon fill="#641d9f" stroke="#641d9f" points="611.125,-1660.6 617.531,-1651.7 612.123,-1655.7 613.121,-1650.81 613.121,-1650.81 613.121,-1650.81 612.123,-1655.7 608.712,-1649.91 611.125,-1660.6 611.125,-1660.6"/>
<polygon fill="#641d9f" stroke="#641d9f" points="590.861,-2196 586.816,-2206.2 591.086,-2201 591.311,-2205.99 591.311,-2205.99 591.311,-2205.99 591.086,-2201 595.806,-2205.79 590.861,-2196 590.861,-2196"/>
</g>
<!-- Dependency -->
<g id="node6" class="node"><title>Dependency</title>
<path fill="none" stroke="black" d="M277.374,-559.2C277.374,-559.2 420.626,-559.2 420.626,-559.2 426.626,-559.2 432.626,-565.2 432.626,-571.2 432.626,-571.2 432.626,-680.8 432.626,-680.8 432.626,-686.8 426.626,-692.8 420.626,-692.8 420.626,-692.8 277.374,-692.8 277.374,-692.8 271.374,-692.8 265.374,-686.8 265.374,-680.8 265.374,-680.8 265.374,-571.2 265.374,-571.2 265.374,-565.2 271.374,-559.2 277.374,-559.2"/>
<text text-anchor="middle" x="349" y="-674.8" font-family="Times,serif" font-size="14.00">Dependency</text>
<polyline fill="none" stroke="black" points="265.374,-668 432.626,-668 "/>
<text text-anchor="start" x="273.374" y="-650" font-family="Times,serif" font-size="14.00">id :integer</text>
<text text-anchor="start" x="273.374" y="-633.2" font-family="Times,serif" font-size="14.00">question_id :integer</text>
<text text-anchor="start" x="273.374" y="-616.4" font-family="Times,serif" font-size="14.00">question_group_id :integer</text>
<text text-anchor="start" x="273.374" y="-599.6" font-family="Times,serif" font-size="14.00">rule :string</text>
<text text-anchor="start" x="273.374" y="-582.8" font-family="Times,serif" font-size="14.00">created_at :datetime</text>
<text text-anchor="start" x="273.374" y="-566" font-family="Times,serif" font-size="14.00">updated_at :datetime</text>
</g>
<!-- DependencyCondition -->
<g id="node7" class="node"><title>DependencyCondition</title>
<path fill="none" stroke="black" d="M242.446,-25.6C242.446,-25.6 375.554,-25.6 375.554,-25.6 381.554,-25.6 387.554,-31.6 387.554,-37.6 387.554,-37.6 387.554,-298.4 387.554,-298.4 387.554,-304.4 381.554,-310.4 375.554,-310.4 375.554,-310.4 242.446,-310.4 242.446,-310.4 236.446,-310.4 230.446,-304.4 230.446,-298.4 230.446,-298.4 230.446,-37.6 230.446,-37.6 230.446,-31.6 236.446,-25.6 242.446,-25.6"/>
<text text-anchor="middle" x="309" y="-292.4" font-family="Times,serif" font-size="14.00">DependencyCondition</text>
<polyline fill="none" stroke="black" points="230.446,-285.6 387.554,-285.6 "/>
<text text-anchor="start" x="238.446" y="-267.6" font-family="Times,serif" font-size="14.00">id :integer</text>
<text text-anchor="start" x="238.446" y="-250.8" font-family="Times,serif" font-size="14.00">dependency_id :integer</text>
<text text-anchor="start" x="238.446" y="-234" font-family="Times,serif" font-size="14.00">rule_key :string</text>
<text text-anchor="start" x="238.446" y="-217.2" font-family="Times,serif" font-size="14.00">question_id :integer</text>
<text text-anchor="start" x="238.446" y="-200.4" font-family="Times,serif" font-size="14.00">operator :string</text>
<text text-anchor="start" x="238.446" y="-183.6" font-family="Times,serif" font-size="14.00">answer_id :integer</text>
<text text-anchor="start" x="238.446" y="-166.8" font-family="Times,serif" font-size="14.00">datetime_value :datetime</text>
<text text-anchor="start" x="238.446" y="-150" font-family="Times,serif" font-size="14.00">integer_value :integer</text>
<text text-anchor="start" x="238.446" y="-133.2" font-family="Times,serif" font-size="14.00">float_value :float</text>
<text text-anchor="start" x="238.446" y="-116.4" font-family="Times,serif" font-size="14.00">unit :string</text>
<text text-anchor="start" x="238.446" y="-99.6" font-family="Times,serif" font-size="14.00">text_value :text</text>
<text text-anchor="start" x="238.446" y="-82.8" font-family="Times,serif" font-size="14.00">string_value :string</text>
<text text-anchor="start" x="238.446" y="-66" font-family="Times,serif" font-size="14.00">response_other :string</text>
<text text-anchor="start" x="238.446" y="-49.2" font-family="Times,serif" font-size="14.00">created_at :datetime</text>
<text text-anchor="start" x="238.446" y="-32.4" font-family="Times,serif" font-size="14.00">updated_at :datetime</text>
</g>
<!-- Dependency&#45;&gt;DependencyCondition -->
<g id="edge8" class="edge"><title>Dependency&#45;&gt;DependencyCondition</title>
<path fill="none" stroke="#da6515" d="M342.512,-551.035C337.068,-488.975 329.115,-398.315 322.323,-320.884"/>
<ellipse fill="none" stroke="#da6515" cx="342.877" cy="-555.196" rx="4" ry="4"/>
<polygon fill="#da6515" stroke="#da6515" points="322.29,-320.5 325.898,-310.145 321.853,-315.52 321.416,-310.539 321.416,-310.539 321.416,-310.539 321.853,-315.52 316.933,-310.932 322.29,-320.5 322.29,-320.5"/>
</g>
<!-- Question -->
<g id="node8" class="node"><title>Question</title>
<path fill="none" stroke="black" d="M12.8877,-916.4C12.8877,-916.4 289.112,-916.4 289.112,-916.4 295.112,-916.4 301.112,-922.4 301.112,-928.4 301.112,-928.4 301.112,-1407.6 301.112,-1407.6 301.112,-1413.6 295.112,-1419.6 289.112,-1419.6 289.112,-1419.6 12.8877,-1419.6 12.8877,-1419.6 6.8877,-1419.6 0.887695,-1413.6 0.887695,-1407.6 0.887695,-1407.6 0.887695,-928.4 0.887695,-928.4 0.887695,-922.4 6.8877,-916.4 12.8877,-916.4"/>
<text text-anchor="middle" x="151" y="-1401.6" font-family="Times,serif" font-size="14.00">Question</text>
<polyline fill="none" stroke="black" points="0.887695,-1394.8 301.112,-1394.8 "/>
<text text-anchor="start" x="8.8877" y="-1376.8" font-family="Times,serif" font-size="14.00">id :integer</text>
<text text-anchor="start" x="8.8877" y="-1360" font-family="Times,serif" font-size="14.00">survey_section_id :integer</text>
<text text-anchor="start" x="8.8877" y="-1343.2" font-family="Times,serif" font-size="14.00">question_group_id :integer</text>
<text text-anchor="start" x="8.8877" y="-1326.4" font-family="Times,serif" font-size="14.00">text :text</text>
<text text-anchor="start" x="8.8877" y="-1309.6" font-family="Times,serif" font-size="14.00">short_text :text</text>
<text text-anchor="start" x="8.8877" y="-1292.8" font-family="Times,serif" font-size="14.00">help_text :text</text>
<text text-anchor="start" x="8.8877" y="-1276" font-family="Times,serif" font-size="14.00">pick :string</text>
<text text-anchor="start" x="8.8877" y="-1259.2" font-family="Times,serif" font-size="14.00">reference_identifier :string</text>
<text text-anchor="start" x="8.8877" y="-1242.4" font-family="Times,serif" font-size="14.00">data_export_identifier :string</text>
<text text-anchor="start" x="8.8877" y="-1225.6" font-family="Times,serif" font-size="14.00">common_namespace :string</text>
<text text-anchor="start" x="8.8877" y="-1208.8" font-family="Times,serif" font-size="14.00">common_identifier :string</text>
<text text-anchor="start" x="8.8877" y="-1192" font-family="Times,serif" font-size="14.00">display_order :integer</text>
<text text-anchor="start" x="8.8877" y="-1175.2" font-family="Times,serif" font-size="14.00">display_type :string</text>
<text text-anchor="start" x="8.8877" y="-1158.4" font-family="Times,serif" font-size="14.00">is_mandatory :boolean</text>
<text text-anchor="start" x="8.8877" y="-1141.6" font-family="Times,serif" font-size="14.00">display_width :integer</text>
<text text-anchor="start" x="8.8877" y="-1124.8" font-family="Times,serif" font-size="14.00">custom_class :string</text>
<text text-anchor="start" x="8.8877" y="-1108" font-family="Times,serif" font-size="14.00">custom_renderer :string</text>
<text text-anchor="start" x="8.8877" y="-1091.2" font-family="Times,serif" font-size="14.00">created_at :datetime</text>
<text text-anchor="start" x="8.8877" y="-1074.4" font-family="Times,serif" font-size="14.00">updated_at :datetime</text>
<text text-anchor="start" x="8.8877" y="-1057.6" font-family="Times,serif" font-size="14.00">correct_answer_id :integer</text>
<text text-anchor="start" x="8.8877" y="-1040.8" font-family="Times,serif" font-size="14.00">api_id :string</text>
<text text-anchor="start" x="8.8877" y="-1024" font-family="Times,serif" font-size="14.00">requirement :string</text>
<text text-anchor="start" x="8.8877" y="-1007.2" font-family="Times,serif" font-size="14.00">required :string</text>
<text text-anchor="start" x="8.8877" y="-990.4" font-family="Times,serif" font-size="14.00">help_text_more_url :string</text>
<text text-anchor="start" x="8.8877" y="-973.6" font-family="Times,serif" font-size="14.00">text_as_statement :string</text>
<text text-anchor="start" x="8.8877" y="-956.8" font-family="Times,serif" font-size="14.00">display_on_certificate :boolean</text>
<text text-anchor="start" x="8.8877" y="-940" font-family="Times,serif" font-size="14.00">question_corresponding_to_requirement_id :string</text>
<text text-anchor="start" x="8.8877" y="-923.2" font-family="Times,serif" font-size="14.00">answer_corresponding_to_requirement_id :string</text>
</g>
<!-- Question&#45;&gt;Answer -->
<g id="edge9" class="edge"><title>Question&#45;&gt;Answer</title>
<path fill="none" stroke="#4c2d62" d="M151,-908.247C151,-901.599 151,-894.943 151,-888.293"/>
<ellipse fill="none" stroke="#4c2d62" cx="151" cy="-912.365" rx="4" ry="4"/>
<polygon fill="#4c2d62" stroke="#4c2d62" points="151,-887.852 155.5,-877.852 151,-882.852 151,-877.852 151,-877.852 151,-877.852 151,-882.852 146.5,-877.852 151,-887.852 151,-887.852"/>
</g>
<!-- Question&#45;&gt;Dependency -->
<g id="edge10" class="edge"><title>Question&#45;&gt;Dependency</title>
<path fill="none" stroke="#6d2ee5" d="M245.73,-908.645C273.686,-832.402 302.096,-754.919 322.023,-700.574"/>
<ellipse fill="none" stroke="#6d2ee5" cx="244.277" cy="-912.61" rx="4.00001" ry="4.00001"/>
<ellipse fill="#6d2ee5" stroke="#6d2ee5" cx="323.4" cy="-696.817" rx="4.00001" ry="4.00001"/>
</g>
<!-- ResponseCacheMap -->
<g id="node10" class="node"><title>ResponseCacheMap</title>
<path fill="none" stroke="black" d="M695.157,-2446.8C695.157,-2446.8 822.843,-2446.8 822.843,-2446.8 828.843,-2446.8 834.843,-2452.8 834.843,-2458.8 834.843,-2458.8 834.843,-2585.2 834.843,-2585.2 834.843,-2591.2 828.843,-2597.2 822.843,-2597.2 822.843,-2597.2 695.157,-2597.2 695.157,-2597.2 689.157,-2597.2 683.157,-2591.2 683.157,-2585.2 683.157,-2585.2 683.157,-2458.8 683.157,-2458.8 683.157,-2452.8 689.157,-2446.8 695.157,-2446.8"/>
<text text-anchor="middle" x="759" y="-2579.2" font-family="Times,serif" font-size="14.00">ResponseCacheMap</text>
<polyline fill="none" stroke="black" points="683.157,-2572.4 834.843,-2572.4 "/>
<text text-anchor="start" x="691.157" y="-2554.4" font-family="Times,serif" font-size="14.00">id :integer</text>
<text text-anchor="start" x="691.157" y="-2537.6" font-family="Times,serif" font-size="14.00">origin_id :integer</text>
<text text-anchor="start" x="691.157" y="-2520.8" font-family="Times,serif" font-size="14.00">target_id :integer</text>
<text text-anchor="start" x="691.157" y="-2504" font-family="Times,serif" font-size="14.00">response_set_id :integer</text>
<text text-anchor="start" x="691.157" y="-2487.2" font-family="Times,serif" font-size="14.00">created_at :datetime</text>
<text text-anchor="start" x="691.157" y="-2470.4" font-family="Times,serif" font-size="14.00">updated_at :datetime</text>
<text text-anchor="start" x="691.157" y="-2453.6" font-family="Times,serif" font-size="14.00">api_id :string</text>
</g>
<!-- ResponseSet&#45;&gt;Response -->
<g id="edge11" class="edge"><title>ResponseSet&#45;&gt;Response</title>
<path fill="none" stroke="#28d457" d="M517.316,-2405.6C500.747,-2370.24 488,-2330.28 488,-2291 488,-2291 488,-2291 488,-625 488,-532.95 488,-430.448 488,-345.978"/>
<ellipse fill="none" stroke="#28d457" cx="519.174" cy="-2409.47" rx="4.00002" ry="4.00002"/>
<polygon fill="#28d457" stroke="#28d457" points="488,-345.768 492.5,-335.768 488,-340.768 488,-335.768 488,-335.768 488,-335.768 488,-340.768 483.5,-335.768 488,-345.768 488,-345.768"/>
</g>
<!-- ResponseSet&#45;&gt;Certificate -->
<g id="edge12" class="edge"><title>ResponseSet&#45;&gt;Certificate</title>
<path fill="none" stroke="#06375a" d="M592,-2405.02C592,-2397.29 592,-2389.57 592,-2381.99"/>
<ellipse fill="none" stroke="#06375a" cx="592" cy="-2409.07" rx="4" ry="4"/>
<ellipse fill="#06375a" stroke="#06375a" cx="592" cy="-2377.83" rx="4" ry="4"/>
</g>
<!-- SurveySection -->
<g id="node14" class="node"><title>SurveySection</title>
<path fill="none" stroke="black" d="M73.5464,-1458.4C73.5464,-1458.4 228.454,-1458.4 228.454,-1458.4 234.454,-1458.4 240.454,-1464.4 240.454,-1470.4 240.454,-1470.4 240.454,-1697.6 240.454,-1697.6 240.454,-1703.6 234.454,-1709.6 228.454,-1709.6 228.454,-1709.6 73.5464,-1709.6 73.5464,-1709.6 67.5464,-1709.6 61.5464,-1703.6 61.5464,-1697.6 61.5464,-1697.6 61.5464,-1470.4 61.5464,-1470.4 61.5464,-1464.4 67.5464,-1458.4 73.5464,-1458.4"/>
<text text-anchor="middle" x="151" y="-1691.6" font-family="Times,serif" font-size="14.00">SurveySection</text>
<polyline fill="none" stroke="black" points="61.5464,-1684.8 240.454,-1684.8 "/>
<text text-anchor="start" x="69.5464" y="-1666.8" font-family="Times,serif" font-size="14.00">id :integer</text>
<text text-anchor="start" x="69.5464" y="-1650" font-family="Times,serif" font-size="14.00">survey_id :integer</text>
<text text-anchor="start" x="69.5464" y="-1633.2" font-family="Times,serif" font-size="14.00">title :string</text>
<text text-anchor="start" x="69.5464" y="-1616.4" font-family="Times,serif" font-size="14.00">description :text</text>
<text text-anchor="start" x="69.5464" y="-1599.6" font-family="Times,serif" font-size="14.00">reference_identifier :string</text>
<text text-anchor="start" x="69.5464" y="-1582.8" font-family="Times,serif" font-size="14.00">data_export_identifier :string</text>
<text text-anchor="start" x="69.5464" y="-1566" font-family="Times,serif" font-size="14.00">common_namespace :string</text>
<text text-anchor="start" x="69.5464" y="-1549.2" font-family="Times,serif" font-size="14.00">common_identifier :string</text>
<text text-anchor="start" x="69.5464" y="-1532.4" font-family="Times,serif" font-size="14.00">display_order :integer</text>
<text text-anchor="start" x="69.5464" y="-1515.6" font-family="Times,serif" font-size="14.00">custom_class :string</text>
<text text-anchor="start" x="69.5464" y="-1498.8" font-family="Times,serif" font-size="14.00">created_at :datetime</text>
<text text-anchor="start" x="69.5464" y="-1482" font-family="Times,serif" font-size="14.00">updated_at :datetime</text>
<text text-anchor="start" x="69.5464" y="-1465.2" font-family="Times,serif" font-size="14.00">display_header :boolean</text>
</g>
<!-- Survey&#45;&gt;SurveySection -->
<g id="edge13" class="edge"><title>Survey&#45;&gt;SurveySection</title>
<path fill="none" stroke="#ea089d" d="M281.302,-1757.26C276.125,-1747.2 270.69,-1737.39 265,-1728 259.453,-1718.85 255.861,-1718.22 249,-1710 248.401,-1709.28 247.8,-1708.56 247.198,-1707.84"/>
<ellipse fill="none" stroke="#ea089d" cx="283.221" cy="-1761.06" rx="4.00002" ry="4.00002"/>
<polygon fill="#ea089d" stroke="#ea089d" points="247.084,-1707.7 244.18,-1697.13 243.898,-1703.85 240.712,-1699.99 240.712,-1699.99 240.712,-1699.99 243.898,-1703.85 237.244,-1702.86 247.084,-1707.7 247.084,-1707.7"/>
<text text-anchor="middle" x="297.552" y="-1731.4" font-family="Times,serif" font-size="14.00">sections</text>
</g>
<!-- Survey&#45;&gt;SurveySection -->
<g id="edge14" class="edge"><title>Survey&#45;&gt;SurveySection</title>
<path fill="none" stroke="#7e383f" d="M259.102,-1903.16C208.704,-1864.72 151.783,-1810.37 124.117,-1746 120.54,-1737.68 118.276,-1728.92 117.052,-1719.97"/>
<ellipse fill="none" stroke="#7e383f" cx="262.336" cy="-1905.6" rx="4.00002" ry="4.00002"/>
<polygon fill="#7e383f" stroke="#7e383f" points="117.031,-1719.75 120.578,-1709.38 116.564,-1714.78 116.098,-1709.8 116.098,-1709.8 116.098,-1709.8 116.564,-1714.78 111.617,-1710.22 117.031,-1719.75 117.031,-1719.75"/>
<text text-anchor="middle" x="192.441" y="-1731.4" font-family="Times,serif" font-size="14.00">sections_with_questions</text>
</g>
<!-- Survey&#45;&gt;ResponseSet -->
<g id="edge15" class="edge"><title>Survey&#45;&gt;ResponseSet</title>
<path fill="none" stroke="#6c5036" d="M377.875,-2175.63C394.679,-2250.86 423.751,-2332.34 474,-2394 485.05,-2407.56 495.593,-2400.76 509,-2412 509.598,-2412.5 510.195,-2413.01 510.789,-2413.52"/>
<ellipse fill="none" stroke="#6c5036" cx="376.939" cy="-2171.34" rx="4.00001" ry="4.00001"/>
<polygon fill="#6c5036" stroke="#6c5036" points="511.002,-2413.71 515.399,-2423.76 514.71,-2417.07 518.418,-2420.42 518.418,-2420.42 518.418,-2420.42 514.71,-2417.07 521.437,-2417.08 511.002,-2413.71 511.002,-2413.71"/>
</g>
<!-- SurveyTranslation -->
<g id="node17" class="node"><title>SurveyTranslation</title>
<ellipse fill="none" stroke="black" cx="340" cy="-1584" rx="82.0594" ry="18"/>
<text text-anchor="middle" x="340" y="-1578.4" font-family="Times,serif" font-size="14.00">SurveyTranslation</text>
</g>
<!-- Survey&#45;&gt;SurveyTranslation -->
<g id="edge16" class="edge"><title>Survey&#45;&gt;SurveyTranslation</title>
<path fill="none" stroke="#9f7d5e" d="M346.768,-1756.45C344.501,-1699.01 342.323,-1643.86 341.076,-1612.25"/>
<ellipse fill="none" stroke="#9f7d5e" cx="346.936" cy="-1760.71" rx="4" ry="4"/>
<polygon fill="#9f7d5e" stroke="#9f7d5e" points="341.069,-1612.08 345.171,-1601.91 340.872,-1607.08 340.675,-1602.09 340.675,-1602.09 340.675,-1602.09 340.872,-1607.08 336.178,-1602.26 341.069,-1612.08 341.069,-1612.08"/>
<text text-anchor="middle" x="378.272" y="-1731.4" font-family="Times,serif" font-size="14.00">translations</text>
</g>
<!-- Survey&#45;&gt;Question -->
<g id="edge17" class="edge"><title>Survey&#45;&gt;Question</title>
<path fill="none" stroke="#0aac5e" d="M256.629,-1913.09C185.453,-1869.47 94.7327,-1799.86 53,-1710 12.6632,-1623.15 18.9926,-1521.28 41.6069,-1429.51"/>
<polygon fill="#0aac5e" stroke="#0aac5e" points="256.652,-1913.1 262.878,-1922.13 260.93,-1915.69 265.208,-1918.28 265.208,-1918.28 265.208,-1918.28 260.93,-1915.69 267.537,-1914.43 256.652,-1913.1 256.652,-1913.1"/>
<polygon fill="#0aac5e" stroke="#0aac5e" points="41.6096,-1429.5 48.4296,-1420.91 42.8387,-1424.65 44.0677,-1419.81 44.0677,-1419.81 44.0677,-1419.81 42.8387,-1424.65 39.7057,-1418.7 41.6096,-1429.5 41.6096,-1429.5"/>
</g>
<!-- Survey&#45;&gt;Dependency -->
<g id="edge18" class="edge"><title>Survey&#45;&gt;Dependency</title>
<path fill="none" stroke="#9d13db" d="M422.774,-1754.83C426.045,-1739.77 428.853,-1724.72 431,-1710 485.758,-1334.56 403.775,-880.226 366.18,-702.975"/>
<polygon fill="#9d13db" stroke="#9d13db" points="422.743,-1754.97 416.169,-1763.75 421.652,-1759.85 420.561,-1764.73 420.561,-1764.73 420.561,-1764.73 421.652,-1759.85 424.952,-1765.71 422.743,-1754.97 422.743,-1754.97"/>
<polygon fill="#9d13db" stroke="#9d13db" points="366.131,-702.748 368.443,-692.028 365.087,-697.858 364.042,-692.969 364.042,-692.969 364.042,-692.969 365.087,-697.858 359.641,-693.909 366.131,-702.748 366.131,-702.748"/>
</g>
<!-- SurveyParsing -->
<g id="node13" class="node"><title>SurveyParsing</title>
<path fill="none" stroke="black" d="M864.495,-2463.6C864.495,-2463.6 973.505,-2463.6 973.505,-2463.6 979.505,-2463.6 985.505,-2469.6 985.505,-2475.6 985.505,-2475.6 985.505,-2568.4 985.505,-2568.4 985.505,-2574.4 979.505,-2580.4 973.505,-2580.4 973.505,-2580.4 864.495,-2580.4 864.495,-2580.4 858.495,-2580.4 852.495,-2574.4 852.495,-2568.4 852.495,-2568.4 852.495,-2475.6 852.495,-2475.6 852.495,-2469.6 858.495,-2463.6 864.495,-2463.6"/>
<text text-anchor="middle" x="919" y="-2562.4" font-family="Times,serif" font-size="14.00">SurveyParsing</text>
<polyline fill="none" stroke="black" points="852.495,-2555.6 985.505,-2555.6 "/>
<text text-anchor="start" x="860.495" y="-2537.6" font-family="Times,serif" font-size="14.00">id :integer</text>
<text text-anchor="start" x="860.495" y="-2520.8" font-family="Times,serif" font-size="14.00">file_name :string</text>
<text text-anchor="start" x="860.495" y="-2504" font-family="Times,serif" font-size="14.00">md5 :string</text>
<text text-anchor="start" x="860.495" y="-2487.2" font-family="Times,serif" font-size="14.00">created_at :datetime</text>
<text text-anchor="start" x="860.495" y="-2470.4" font-family="Times,serif" font-size="14.00">updated_at :datetime</text>
</g>
<!-- SurveySection&#45;&gt;Question -->
<g id="edge19" class="edge"><title>SurveySection&#45;&gt;Question</title>
<path fill="none" stroke="#4aaa3d" d="M151,-1450.04C151,-1443.43 151,-1436.72 151,-1429.92"/>
<ellipse fill="none" stroke="#4aaa3d" cx="151" cy="-1454.22" rx="4" ry="4"/>
<polygon fill="#4aaa3d" stroke="#4aaa3d" points="151,-1429.9 155.5,-1419.9 151,-1424.9 151,-1419.9 151,-1419.9 151,-1419.9 151,-1424.9 146.5,-1419.9 151,-1429.9 151,-1429.9"/>
</g>
<!-- User&#45;&gt;Dataset -->
<g id="edge20" class="edge"><title>User&#45;&gt;Dataset</title>
<path fill="none" stroke="#68d04e" d="M665.243,-1807.06C655.397,-1756.5 644.944,-1702.82 636.782,-1660.91"/>
<ellipse fill="none" stroke="#68d04e" cx="666.042" cy="-1811.16" rx="4.00001" ry="4.00001"/>
<polygon fill="#68d04e" stroke="#68d04e" points="636.776,-1660.88 639.282,-1650.2 635.82,-1655.97 634.865,-1651.06 634.865,-1651.06 634.865,-1651.06 635.82,-1655.97 630.448,-1651.92 636.776,-1660.88 636.776,-1660.88"/>
</g>
<!-- User&#45;&gt;ResponseSet -->
<g id="edge21" class="edge"><title>User&#45;&gt;ResponseSet</title>
<path fill="none" stroke="#d56df9" d="M705.233,-2125.48C705.423,-2201.97 699.295,-2294.23 676,-2374 673.097,-2383.94 669.401,-2393.93 665.186,-2403.77"/>
<ellipse fill="none" stroke="#d56df9" cx="705.21" cy="-2121.18" rx="4" ry="4"/>
<polygon fill="#d56df9" stroke="#d56df9" points="665.075,-2404.02 656.886,-2411.31 663.035,-2408.58 660.995,-2413.15 660.995,-2413.15 660.995,-2413.15 663.035,-2408.58 665.103,-2414.98 665.075,-2404.02 665.075,-2404.02"/>
</g>
</g>
</svg>
